<svg width="24" height="24" viewBox="0 0 24 24" fill="none" xmlns="http://www.w3.org/2000/svg">
<circle cx="12" cy="12" r="12" fill="white"/>
<path d="M6.41797 11.8799H4.5918L4.58203 10.874H6.11523C6.38542 10.874 6.60677 10.8398 6.7793 10.7715C6.95182 10.6999 7.0804 10.5973 7.16504 10.4639C7.25293 10.3271 7.29688 10.1611 7.29688 9.96582C7.29688 9.74447 7.25456 9.56543 7.16992 9.42871C7.08854 9.29199 6.95996 9.19271 6.78418 9.13086C6.61165 9.06901 6.38867 9.03809 6.11523 9.03809H5.09961V15H3.63477V7.89062H6.11523C6.52865 7.89062 6.89811 7.92969 7.22363 8.00781C7.55241 8.08594 7.83073 8.20475 8.05859 8.36426C8.28646 8.52376 8.46061 8.72559 8.58105 8.96973C8.7015 9.21061 8.76172 9.49707 8.76172 9.8291C8.76172 10.1221 8.69499 10.3923 8.56152 10.6396C8.43132 10.887 8.22461 11.0889 7.94141 11.2451C7.66146 11.4014 7.29525 11.4876 6.84277 11.5039L6.41797 11.8799ZM6.35449 15H4.19141L4.7627 13.8574H6.35449C6.61165 13.8574 6.82161 13.8167 6.98438 13.7354C7.14714 13.6507 7.26758 13.5368 7.3457 13.3936C7.42383 13.2503 7.46289 13.0859 7.46289 12.9004C7.46289 12.6921 7.42708 12.5114 7.35547 12.3584C7.28711 12.2054 7.17643 12.0882 7.02344 12.0068C6.87044 11.9222 6.66862 11.8799 6.41797 11.8799H5.00684L5.0166 10.874H6.77441L7.11133 11.2695C7.54427 11.263 7.89258 11.3395 8.15625 11.499C8.42318 11.6553 8.61686 11.8587 8.7373 12.1094C8.861 12.36 8.92285 12.6286 8.92285 12.915C8.92285 13.3708 8.82357 13.7549 8.625 14.0674C8.42643 14.3766 8.13509 14.6094 7.75098 14.7656C7.37012 14.9219 6.90462 15 6.35449 15ZM13.0635 7.89062V15H11.6035V7.89062H13.0635ZM15.251 7.89062V9.03809H9.4502V7.89062H15.251ZM20.7344 7.89062V9.03809H17.5361V15H16.0762V7.89062H20.7344ZM17.0332 10.4834H18.6934C19.2533 10.4834 19.735 10.5762 20.1387 10.7617C20.5423 10.9473 20.8532 11.2077 21.0713 11.543C21.2894 11.8783 21.3984 12.2689 21.3984 12.7148C21.3984 13.0534 21.3366 13.3626 21.2129 13.6426C21.0892 13.9193 20.9085 14.1602 20.6709 14.3652C20.4365 14.5671 20.1533 14.7233 19.8213 14.834C19.4893 14.9447 19.1133 15 18.6934 15H16.0762V7.89062H17.5459V13.8574H18.6934C18.9733 13.8574 19.2044 13.8053 19.3867 13.7012C19.569 13.597 19.7057 13.4587 19.7969 13.2861C19.8913 13.1104 19.9385 12.9167 19.9385 12.7051C19.9385 12.5033 19.8913 12.321 19.7969 12.1582C19.7057 11.9922 19.569 11.862 19.3867 11.7676C19.2044 11.6732 18.9733 11.626 18.6934 11.626H17.0332V10.4834Z" fill="black"/>
</svg>
