<svg width="32" height="32" viewBox="0 0 32 32" fill="none" xmlns="http://www.w3.org/2000/svg">
<path d="M28.28 21.187C27.4318 23.193 26.1051 24.9606 24.4158 26.3354C22.7266 27.7102 20.7264 28.6502 18.5899 29.0734C16.4535 29.4965 14.2459 29.3899 12.1602 28.7627C10.0745 28.1356 8.17418 27.0071 6.62537 25.4759C5.07656 23.9446 3.92643 22.0573 3.27552 19.9789C2.62462 17.9005 2.49276 15.6943 2.89147 13.5532C3.29019 11.412 4.20734 9.40116 5.56274 7.69636C6.91814 5.99157 8.67052 4.64475 10.6667 3.77366M29.3333 16.0003C29.3333 14.2494 28.9885 12.5156 28.3184 10.8979C27.6483 9.2802 26.6662 7.81035 25.4281 6.57224C24.19 5.33412 22.7201 4.35199 21.1025 3.68193C19.4848 3.01187 17.751 2.66699 16 2.66699V16.0003H29.3333Z" stroke="white" stroke-width="2" stroke-linecap="round" stroke-linejoin="round"/>
</svg>
