<svg width="26" height="26" viewBox="0 0 26 26" fill="none" xmlns="http://www.w3.org/2000/svg">
<path d="M6.40002 6.02928L13.6421 1.38278C14.7479 0.673291 16.2259 0.978078 16.9522 2.06537L19.6 6.02928" stroke="white" stroke-width="1.5"/>
<path d="M25 12.3529V18.6764C25 22.4706 22.6 25 19 25H7C3.4 25 1 22.4706 1 18.6764V12.3529C1 8.91285 2.968 6.50989 6.028 6.10518C6.34 6.05459 6.664 6.0293 7 6.0293H19C19.312 6.0293 19.612 6.04193 19.9 6.09252C22.996 6.47193 25 8.88755 25 12.3529Z" stroke="white" stroke-width="2" stroke-linecap="round" stroke-linejoin="round"/>
<path d="M20.1714 13.1436H24C24.5523 13.1436 25 13.5913 25 14.1436V16.8862C25 17.4385 24.5523 17.8862 24 17.8862H20.1714C18.8617 17.8862 17.8 16.8245 17.8 15.5149C17.8 14.2052 18.8617 13.1436 20.1714 13.1436Z" stroke="white" stroke-width="1.5" stroke-linecap="round"/>
</svg>
